<svg width="576" height="576" xmlns="http://www.w3.org/2000/svg" xmlns:xlink="http://www.w3.org/1999/xlink" overflow="hidden"><defs><clipPath id="clip0"><rect x="352" y="72" width="576" height="576"/></clipPath><clipPath id="clip1"><rect x="352" y="72" width="575" height="575"/></clipPath><clipPath id="clip2"><rect x="352" y="72" width="575" height="575"/></clipPath><clipPath id="clip3"><rect x="352" y="72" width="575" height="575"/></clipPath></defs><g clip-path="url(#clip0)" transform="translate(-352 -72)"><rect x="402" y="289" width="245" height="215" fill="#FFFFFF"/><path d="M647 504 647 633 402 504Z" fill="#FFFFFF" fill-rule="evenodd"/><rect x="633" y="277" width="245" height="237" fill="#FFFFFF"/><path d="M0 119 0 0 237 119Z" fill="#FFFFFF" fill-rule="evenodd" transform="matrix(1 0 0 -1 641 628)"/><path d="M0 204 151.225 0 334 204Z" fill="#FFFFFF" fill-rule="evenodd" transform="matrix(-1 0 0 1 922 85)"/><g clip-path="url(#clip1)"><g clip-path="url(#clip2)"><g clip-path="url(#clip3)"><path d="M519.213 359.737C518.442 360.41 517.989 361.39 517.989 362.429L517.989 467.054C517.989 468.583 518.968 469.929 520.412 470.419L588.261 493.039C588.628 493.161 589.008 493.223 589.387 493.223 590.12 493.223 590.855 492.99 591.455 492.55 592.384 491.877 592.935 490.812 592.935 489.675L592.935 372.364C592.935 370.602 591.651 369.11 589.901 368.852L522.051 358.918C521.036 358.759 519.996 359.066 519.213 359.737Z"/><path d="M484.322 353.449 436.5 346.476C435.484 346.317 434.444 346.635 433.673 347.296 432.89 347.968 432.45 348.947 432.45 349.986L432.45 438.524C432.45 440.054 433.428 441.4 434.872 441.889L482.695 457.829C483.062 457.952 483.441 458.013 483.808 458.013 484.542 458.013 485.276 457.781 485.888 457.34 486.806 456.667 487.356 455.603 487.356 454.465L487.356 356.949C487.355 355.187 486.071 353.694 484.322 353.449Z"/><path d="M924.891 275.568 776.468 76.8406C776.468 76.8406 775.05 74.6017 771.77 73.2924 768.492 71.971 765.299 72.9006 765.299 72.9006L532.095 132.664 532.095 112.037C532.095 107.083 528.682 102.789 523.862 101.663L504.373 97.1615C504.373 97.1615 503.113 96.8187 501.338 96.9166 499.565 97.0146 498.427 97.4914 498.427 97.4914L463.278 109.945C459.033 111.449 456.195 115.462 456.195 119.964L456.195 152.127 419.285 161.572C416.312 162.342 413.816 164.348 412.422 167.089L353.15 284.561C351.498 287.827 351.633 291.705 353.517 294.838 355.401 297.969 358.765 299.915 362.423 300.001L390.512 300.588 390.512 509.042C390.512 513.018 392.714 516.652 396.238 518.475L639.778 645.205C639.778 645.205 641.895 646.38 644.671 646.416 647.448 646.44 649.59 645.205 649.59 645.205L885.571 522.303C889.082 520.468 891.284 516.846 891.296 512.87L891.712 290.885 915.617 292.536C915.617 292.536 921.869 293.245 925.392 287.52 929.282 281.257 924.891 275.568 924.891 275.568ZM634.066 618.241 411.799 502.582 411.799 301.027 589.179 304.759C589.179 304.759 589.179 304.759 589.191 304.759L589.215 304.759 634.077 305.566 634.077 618.242 634.066 618.242ZM881.84 268.888C878.891 268.681 876.004 269.708 873.851 271.715 871.698 273.721 870.474 276.547 870.461 279.483L870.046 506.412 809.134 538.147 809.134 341.472C809.134 340.469 808.717 339.527 807.984 338.854 807.25 338.18 806.283 337.851 805.293 337.936L746.692 342.806C744.857 342.965 743.438 344.506 743.438 346.341L743.438 572.339 655.328 618.229 655.328 295.118C655.328 289.307 650.679 284.585 644.88 284.475L611.996 283.875 767.415 100.293 893.963 269.721 881.84 268.888Z"/></g></g></g></g></svg>