<svg width="577" height="576" xmlns="http://www.w3.org/2000/svg" xmlns:xlink="http://www.w3.org/1999/xlink" overflow="hidden"><defs><clipPath id="clip0"><rect x="187" y="72" width="577" height="576"/></clipPath><clipPath id="clip1"><rect x="188" y="72" width="575" height="575"/></clipPath><clipPath id="clip2"><rect x="188" y="72" width="575" height="575"/></clipPath><clipPath id="clip3"><rect x="188" y="72" width="575" height="575"/></clipPath></defs><g clip-path="url(#clip0)" transform="translate(-187 -72)"><path d="M484.667 363.977 625.195 329.22 682.309 560.143 541.782 594.9Z" fill="#2E75B6" fill-rule="evenodd"/><rect x="643" y="204" width="96" height="322" fill="#2E75B6"/><rect x="209" y="171" width="323" height="393" fill="#2E75B6"/><path d="M0 113 196.992 0 351 113Z" fill="#2E75B6" fill-rule="evenodd" transform="matrix(-1 0 0 1 561 76)"/><g clip-path="url(#clip1)"><g clip-path="url(#clip2)"><g clip-path="url(#clip3)"><path d="M749.72 202.505 639.27 166.219C639.258 166.207 639.247 166.207 639.221 166.207L639.233 166.207C639.233 166.207 637.472 165.535 634.989 165.792 632.506 166.061 630.755 167.345 630.755 167.345L568.841 207.779C566.039 209.602 564.351 212.721 564.351 216.086L564.351 326.84 560.925 326.583 560.925 147.673C560.925 143.379 558.172 139.586 554.11 138.252L353.889 72.4828C353.889 72.4828 351.577 71.7491 349.435 72.091 346.867 72.5068 344.994 73.8651 344.994 73.8651L198.64 178.246C196.022 180.105 194.468 183.102 194.468 186.32L194.468 556.863C194.468 560.484 196.45 563.811 199.618 565.548L346.022 645.779C346.022 645.779 347.539 646.672 349.619 646.928 351.699 647.173 353.216 646.72 353.216 646.72L553.438 596.17 638.61 574.675 749.035 546.792C753.426 545.691 756.51 541.728 756.51 537.189L756.533 211.938C756.546 207.631 753.78 203.839 749.72 202.505ZM224.343 510.055C224.343 511.131 223.817 512.148 222.936 512.758 222.373 513.151 221.712 513.359 221.052 513.359 220.66 513.359 220.281 513.297 219.901 513.151L211.349 510.007C210.053 509.53 209.184 508.282 209.184 506.9L209.184 479.704C209.184 478.676 209.673 477.698 210.48 477.073 211.299 476.437 212.376 476.241 213.367 476.511L221.919 478.884C223.339 479.288 224.33 480.597 224.33 482.077L224.33 510.056 224.343 510.056ZM224.343 454.109C224.343 455.088 223.914 456.017 223.144 456.654 222.544 457.143 221.81 457.413 221.04 457.413 220.832 457.413 220.636 457.389 220.428 457.351L211.876 455.747C210.31 455.454 209.173 454.083 209.173 452.493L209.173 425.286C209.173 424.356 209.564 423.474 210.261 422.839 210.959 422.215 211.876 421.909 212.806 422.007L221.358 422.839C223.046 423.011 224.331 424.43 224.331 426.13L224.331 454.109 224.343 454.109ZM224.343 398.175C224.343 399.056 224 399.912 223.377 400.525 222.753 401.135 221.92 401.478 221.053 401.478 221.041 401.478 221.029 401.478 221.029 401.478L212.477 401.417C210.666 401.393 209.187 399.925 209.187 398.102L209.187 370.905C209.187 369.18 210.508 367.75 212.221 367.615L220.773 366.905C221.702 366.819 222.596 367.137 223.281 367.761 223.966 368.398 224.345 369.266 224.345 370.196L224.345 398.175ZM224.343 342.242C224.343 343.845 223.181 345.214 221.602 345.496L213.051 346.976C212.855 347.013 212.672 347.025 212.488 347.025 211.705 347.025 210.959 346.756 210.36 346.255 209.613 345.618 209.173 344.7 209.173 343.71L209.173 316.514C209.173 315.009 210.188 313.713 211.631 313.321L220.183 311.058C221.186 310.801 222.238 311.021 223.046 311.645 223.853 312.268 224.318 313.235 224.318 314.262L224.318 342.242 224.343 342.242ZM224.343 286.308C224.343 287.703 223.462 288.963 222.141 289.428L213.589 292.449C213.236 292.572 212.868 292.633 212.488 292.633 211.803 292.633 211.143 292.425 210.58 292.033 209.711 291.409 209.185 290.406 209.185 289.33L209.185 262.121C209.185 260.825 209.955 259.638 211.155 259.1L219.706 255.307C220.722 254.855 221.908 254.953 222.851 255.564 223.78 256.189 224.343 257.229 224.343 258.342L224.343 286.308ZM224.343 230.374C224.343 231.609 223.67 232.711 222.594 233.298L214.042 237.849C213.552 238.106 213.015 238.241 212.488 238.241 211.888 238.241 211.301 238.07 210.776 237.763 209.784 237.163 209.173 236.099 209.173 234.937L209.173 207.741C209.173 206.592 209.759 205.527 210.727 204.939L219.279 199.606C220.306 198.969 221.578 198.933 222.631 199.52 223.683 200.107 224.332 201.208 224.332 202.408L224.332 230.374 224.343 230.374ZM253.179 520.661C253.179 521.738 252.653 522.753 251.771 523.365 251.209 523.757 250.536 523.965 249.875 523.965 249.497 523.965 249.117 523.904 248.737 523.757L238.546 520.001C237.25 519.524 236.38 518.289 236.38 516.905L236.38 487.251C236.38 486.223 236.858 485.257 237.676 484.62 238.496 483.997 239.561 483.801 240.564 484.069L250.743 486.908C252.174 487.3 253.165 488.608 253.165 490.089L253.165 520.661 253.179 520.661ZM253.179 459.529C253.179 460.507 252.739 461.437 251.979 462.073 251.38 462.562 250.634 462.832 249.863 462.832 249.656 462.832 249.46 462.808 249.252 462.77L239.073 460.862C237.507 460.568 236.369 459.199 236.369 457.608L236.369 427.965C236.369 427.035 236.761 426.142 237.458 425.518 238.167 424.895 239.085 424.589 240.002 424.674L250.193 425.665C251.894 425.836 253.179 427.256 253.179 428.969L253.179 459.529ZM253.179 398.407C253.179 399.275 252.836 400.133 252.2 400.744 251.576 401.355 250.744 401.698 249.875 401.698 249.875 401.698 249.863 401.698 249.851 401.698L239.672 401.625C237.861 401.612 236.382 400.133 236.382 398.31L236.382 368.678C236.382 366.953 237.691 365.523 239.417 365.375L249.608 364.544C250.525 364.458 251.431 364.775 252.115 365.399 252.8 366.023 253.18 366.904 253.18 367.822L253.18 398.407ZM253.179 337.262C253.179 338.877 252.016 340.248 250.438 340.528L240.247 342.278C240.051 342.314 239.867 342.326 239.684 342.326 238.914 342.326 238.155 342.046 237.544 341.544 236.797 340.907 236.369 339.99 236.369 339.011L236.369 309.368C236.369 307.864 237.385 306.554 238.828 306.162L249.019 303.483C250.009 303.226 251.074 303.434 251.869 304.069 252.677 304.694 253.154 305.66 253.154 306.688L253.154 337.26 253.179 337.26ZM253.179 276.129C253.179 277.536 252.298 278.784 250.965 279.249L240.786 282.846C240.431 282.981 240.052 283.042 239.684 283.042 239 283.042 238.339 282.834 237.776 282.43 236.896 281.805 236.381 280.803 236.381 279.726L236.381 250.083C236.381 248.787 237.14 247.587 238.351 247.062L248.53 242.547C249.558 242.107 250.745 242.193 251.675 242.792 252.616 243.403 253.179 244.456 253.179 245.568L253.179 276.129ZM253.179 215.008C253.179 216.232 252.506 217.344 251.43 217.92L241.251 223.352C240.761 223.609 240.223 223.731 239.697 223.731 239.098 223.731 238.51 223.572 237.984 223.266 236.994 222.667 236.381 221.59 236.381 220.441L236.381 190.797C236.381 189.66 236.969 188.595 237.935 187.984L248.126 181.634C249.154 180.998 250.426 180.961 251.479 181.549 252.53 182.136 253.179 183.237 253.179 184.436L253.179 215.008ZM287.924 533.433C287.924 534.523 287.398 535.537 286.516 536.15 285.954 536.542 285.281 536.75 284.632 536.75 284.24 536.75 283.862 536.677 283.482 536.542L271.138 532.003C269.842 531.525 268.972 530.278 268.972 528.895L268.972 496.316C268.972 495.289 269.45 494.309 270.268 493.686 271.076 493.062 272.152 492.866 273.143 493.135L285.499 496.561C286.918 496.953 287.91 498.261 287.91 499.742L287.91 533.434 287.924 533.434ZM287.924 466.048C287.924 467.027 287.483 467.957 286.724 468.594 286.125 469.083 285.379 469.353 284.62 469.353 284.412 469.353 284.204 469.329 284.009 469.291L271.653 466.979C270.085 466.685 268.96 465.315 268.96 463.725L268.96 431.146C268.96 430.215 269.352 429.323 270.036 428.699 270.734 428.075 271.664 427.768 272.581 427.854L284.925 429.066C286.626 429.237 287.911 430.656 287.911 432.369L287.911 466.048 287.924 466.048ZM287.924 398.652C287.924 399.532 287.581 400.389 286.945 401.001 286.333 401.612 285.489 401.955 284.633 401.955 284.62 401.955 284.608 401.955 284.596 401.955L272.252 401.857C270.441 401.844 268.986 400.377 268.986 398.554L268.986 365.95C268.986 364.238 270.295 362.805 272.008 362.671L284.363 361.656C285.281 361.57 286.187 361.888 286.871 362.512 287.557 363.136 287.936 364.017 287.936 364.934L287.936 398.651 287.924 398.651ZM287.924 331.268C287.924 332.871 286.761 334.253 285.183 334.522L272.826 336.663C272.642 336.7 272.459 336.712 272.263 336.712 271.493 336.712 270.734 336.443 270.135 335.942 269.389 335.305 268.961 334.387 268.961 333.409L268.961 300.83C268.961 299.326 269.965 298.028 271.42 297.638L283.764 294.383C284.754 294.126 285.819 294.334 286.614 294.97 287.422 295.594 287.911 296.56 287.911 297.588L287.911 331.268 287.924 331.268ZM287.924 263.87C287.924 265.278 287.043 266.525 285.722 266.99L273.365 271.346C273.01 271.467 272.643 271.541 272.263 271.541 271.591 271.541 270.93 271.321 270.355 270.93 269.487 270.306 268.973 269.303 268.973 268.226L268.973 235.647C268.973 234.326 269.732 233.151 270.93 232.626L283.274 227.157C284.301 226.705 285.488 226.803 286.418 227.402 287.361 228.014 287.924 229.066 287.924 230.179L287.924 263.87ZM287.924 196.486C287.924 197.709 287.251 198.822 286.174 199.397L273.819 205.979C273.329 206.236 272.803 206.358 272.264 206.358 271.678 206.358 271.078 206.199 270.564 205.893 269.573 205.293 268.961 204.217 268.961 203.067L268.961 170.476C268.961 169.338 269.548 168.274 270.515 167.675L282.859 159.98C283.899 159.355 285.171 159.319 286.223 159.906 287.276 160.481 287.925 161.594 287.925 162.793L287.925 196.486ZM330.596 549.129C330.596 550.219 330.07 551.233 329.188 551.846 328.614 552.238 327.953 552.446 327.292 552.446 326.913 552.446 326.534 552.373 326.155 552.238L310.886 546.623C309.59 546.145 308.72 544.897 308.72 543.515L308.72 507.351C308.72 506.324 309.198 505.358 310.018 504.721 310.837 504.097 311.902 503.902 312.892 504.171L328.161 508.415C329.592 508.807 330.583 510.116 330.583 511.597L330.583 549.13 330.596 549.13ZM330.596 474.05C330.596 475.041 330.156 475.97 329.397 476.595 328.797 477.096 328.051 477.354 327.28 477.354 327.072 477.354 326.876 477.33 326.669 477.292L311.4 474.429C309.847 474.148 308.708 472.778 308.708 471.175L308.708 435.024C308.708 434.093 309.1 433.201 309.797 432.577 310.483 431.94 311.412 431.647 312.33 431.732L327.598 433.225C329.298 433.397 330.583 434.816 330.583 436.516L330.583 474.05 330.596 474.05ZM330.596 398.983C330.596 399.864 330.253 400.72 329.617 401.332 328.992 401.944 328.161 402.287 327.292 402.287 327.292 402.287 327.28 402.287 327.268 402.287L312.001 402.164C310.19 402.152 308.721 400.685 308.721 398.861L308.721 362.685C308.721 360.959 310.031 359.529 311.756 359.381L327.011 358.134C327.954 358.049 328.846 358.355 329.531 358.989 330.204 359.614 330.596 360.495 330.596 361.412L330.596 398.983 330.596 398.983ZM330.596 323.891C330.596 325.506 329.433 326.876 327.843 327.158L312.587 329.788C312.392 329.825 312.209 329.837 312.013 329.837 311.254 329.837 310.484 329.58 309.884 329.066 309.137 328.442 308.709 327.512 308.709 326.546L308.709 290.382C308.709 288.877 309.713 287.569 311.168 287.177L326.436 283.177C327.427 282.92 328.479 283.128 329.286 283.751 330.094 284.388 330.583 285.342 330.583 286.369L330.583 323.891 330.596 323.891ZM330.596 248.823C330.596 250.218 329.715 251.477 328.382 251.942L313.114 257.325C312.759 257.448 312.381 257.521 312.013 257.521 311.34 257.521 310.679 257.301 310.117 256.91 309.236 256.285 308.721 255.282 308.721 254.206L308.721 218.042C308.721 216.746 309.48 215.546 310.678 215.02L325.947 208.255C326.974 207.802 328.161 207.9 329.091 208.5 330.033 209.111 330.596 210.164 330.596 211.276L330.596 248.823ZM330.596 173.743C330.596 174.966 329.923 176.08 328.834 176.654L313.566 184.79C313.089 185.047 312.55 185.182 312.013 185.182 311.425 185.182 310.838 185.023 310.312 184.704 309.321 184.105 308.708 183.028 308.708 181.879L308.708 145.703C308.708 144.565 309.296 143.501 310.263 142.889L325.53 133.384C326.546 132.748 327.842 132.711 328.882 133.299 329.922 133.885 330.583 134.987 330.583 136.186L330.583 173.745 330.596 173.745ZM411.695 548.017C411.695 549.631 410.52 551.001 408.93 551.283L373.696 557.254C373.5 557.278 373.329 557.303 373.146 557.303 372.375 557.303 371.604 557.033 371.005 556.521 370.258 555.896 369.83 554.979 369.83 554.001L369.83 515.268C369.83 513.604 371.066 512.209 372.705 512.001L407.95 507.499C408.88 507.364 409.834 507.67 410.556 508.282 411.278 508.918 411.682 509.811 411.682 510.764L411.682 548.017 411.695 548.017ZM411.695 473.488C411.695 475.201 410.385 476.632 408.673 476.766L373.427 479.813C373.329 479.826 373.232 479.826 373.146 479.826 372.326 479.826 371.518 479.532 370.907 478.969 370.221 478.332 369.83 477.452 369.83 476.534L369.83 438.107C369.83 436.334 371.213 434.878 372.987 434.804L408.233 433.201C409.151 433.152 410.006 433.482 410.655 434.106 411.316 434.73 411.683 435.598 411.683 436.492L411.683 473.488 411.695 473.488ZM411.695 398.958C411.695 400.781 410.214 402.262 408.391 402.273L373.158 402.395C373.146 402.395 373.146 402.395 373.146 402.395 372.265 402.395 371.42 402.052 370.809 401.428 370.185 400.817 369.842 399.973 369.842 399.104L369.842 360.359C369.842 359.465 370.209 358.609 370.858 357.986 371.506 357.361 372.375 357.031 373.268 357.068L408.514 358.402C410.288 358.463 411.696 359.919 411.696 361.693L411.696 398.958ZM411.695 324.416C411.695 325.334 411.316 326.227 410.63 326.839 410.005 327.402 409.211 327.72 408.379 327.72 408.293 327.72 408.208 327.708 408.122 327.708L372.889 324.906C371.164 324.771 369.842 323.34 369.842 321.603L369.842 282.882C369.842 281.94 370.246 281.035 370.956 280.41 371.665 279.774 372.607 279.481 373.549 279.602L408.783 283.872C410.447 284.08 411.695 285.488 411.695 287.151L411.695 324.416 411.695 324.416ZM411.695 249.887C411.695 250.866 411.266 251.783 410.52 252.407 409.92 252.921 409.163 253.202 408.379 253.202 408.195 253.202 408.036 253.19 407.853 253.165L372.607 247.426C371.004 247.169 369.83 245.787 369.83 244.16L369.83 205.44C369.83 204.437 370.27 203.507 371.054 202.87 371.812 202.247 372.815 202.002 373.806 202.186L409.04 209.379C410.581 209.697 411.695 211.055 411.695 212.622L411.695 249.887ZM411.695 175.358C411.695 176.373 411.23 177.328 410.422 177.964 409.835 178.416 409.101 178.673 408.379 178.673 408.122 178.673 407.853 178.636 407.596 178.575L372.362 169.927C370.882 169.56 369.842 168.225 369.842 166.709L369.842 127.963C369.842 126.923 370.332 125.957 371.152 125.321 371.984 124.696 373.048 124.501 374.051 124.782L409.285 134.9C410.703 135.304 411.683 136.601 411.683 138.081L411.683 175.358 411.695 175.358ZM474.748 537.336C474.748 538.95 473.574 540.321 471.984 540.603L441.607 545.753C441.423 545.777 441.24 545.79 441.056 545.79 440.285 545.79 439.527 545.532 438.927 545.019 438.18 544.396 437.741 543.465 437.741 542.5L437.741 506.58C437.741 504.916 438.976 503.51 440.627 503.302L471.004 499.411C471.946 499.289 472.888 499.595 473.61 500.207 474.32 500.842 474.735 501.735 474.735 502.689L474.735 537.336 474.748 537.336ZM474.748 468.043C474.748 469.756 473.439 471.188 471.727 471.322L441.35 473.951C441.252 473.964 441.154 473.964 441.068 473.964 440.248 473.964 439.441 473.659 438.829 473.096 438.143 472.472 437.753 471.591 437.753 470.661L437.753 434.767C437.753 432.993 439.147 431.537 440.921 431.451L471.298 430.094C472.179 430.032 473.084 430.375 473.72 430.999 474.381 431.635 474.747 432.491 474.747 433.384L474.747 468.043ZM474.748 398.738C474.748 400.549 473.268 402.041 471.445 402.052L441.068 402.151 441.056 402.151C440.187 402.151 439.343 401.82 438.719 401.196 438.095 400.573 437.741 399.728 437.741 398.86L437.741 362.928C437.741 362.035 438.107 361.167 438.756 360.555 439.405 359.931 440.285 359.588 441.179 359.638L471.543 360.787C473.329 360.86 474.736 362.317 474.736 364.103L474.736 398.737 474.748 398.737ZM474.748 329.433C474.748 330.35 474.357 331.231 473.684 331.855 473.059 332.417 472.265 332.723 471.433 332.723 471.348 332.723 471.249 332.723 471.164 332.711L440.787 330.301C439.062 330.167 437.742 328.735 437.742 326.998L437.742 291.116C437.742 290.161 438.145 289.268 438.867 288.644 439.577 288.007 440.506 287.714 441.449 287.836L471.826 291.52C473.49 291.727 474.737 293.123 474.737 294.798L474.737 329.432 474.748 329.432ZM474.748 260.127C474.748 261.094 474.32 262.011 473.574 262.647 472.974 263.161 472.217 263.43 471.433 263.43 471.249 263.43 471.079 263.418 470.907 263.381L440.53 258.451C438.927 258.194 437.741 256.8 437.741 255.185L437.741 219.265C437.741 218.274 438.193 217.332 438.964 216.709 439.723 216.085 440.75 215.828 441.717 216.023L472.094 222.226C473.635 222.532 474.748 223.89 474.748 225.468L474.748 260.127ZM474.748 190.834C474.748 191.85 474.284 192.804 473.488 193.428 472.888 193.893 472.167 194.138 471.445 194.138 471.175 194.138 470.919 194.114 470.649 194.04L440.272 186.589C438.792 186.235 437.753 184.901 437.753 183.372L437.753 147.465C437.753 146.424 438.241 145.446 439.074 144.822 439.894 144.198 440.97 144.002 441.962 144.283L472.339 153.006C473.757 153.41 474.736 154.707 474.736 156.187L474.736 190.834 474.748 190.834ZM529.531 528.051C529.531 529.665 528.37 531.035 526.779 531.317L500.317 535.794C500.122 535.831 499.95 535.844 499.755 535.844 498.995 535.844 498.225 535.574 497.625 535.073 496.879 534.437 496.452 533.519 496.452 532.542L496.452 499.069C496.452 497.406 497.687 496.011 499.325 495.791L525.789 492.414C526.73 492.291 527.673 492.585 528.393 493.197 529.115 493.834 529.519 494.738 529.519 495.68L529.519 528.052 529.531 528.052ZM529.531 463.296C529.531 465.022 528.223 466.44 526.51 466.587L500.048 468.875C499.95 468.887 499.853 468.887 499.755 468.887 498.935 468.887 498.139 468.581 497.516 468.018 496.83 467.395 496.453 466.514 496.453 465.597L496.453 432.124C496.453 430.363 497.835 428.896 499.609 428.821L526.071 427.633C526.964 427.584 527.857 427.915 528.494 428.539 529.154 429.163 529.52 430.031 529.52 430.925L529.52 463.296 529.531 463.296ZM529.531 398.542C529.531 400.365 528.063 401.833 526.228 401.857L499.766 401.943C499.766 401.943 499.766 401.943 499.754 401.943 498.885 401.943 498.04 401.6 497.429 400.989 496.804 400.365 496.463 399.52 496.463 398.652L496.463 365.167C496.463 364.274 496.817 363.405 497.478 362.794 498.126 362.17 498.983 361.84 499.889 361.877L526.351 362.879C528.112 362.941 529.531 364.409 529.531 366.171L529.531 398.542ZM529.531 333.788C529.531 334.705 529.153 335.599 528.468 336.223 527.857 336.785 527.061 337.091 526.217 337.091 526.131 337.091 526.045 337.091 525.959 337.079L499.497 334.975C497.785 334.828 496.464 333.397 496.464 331.684L496.464 298.212C496.464 297.271 496.867 296.377 497.576 295.74 498.287 295.117 499.227 294.823 500.171 294.946L526.621 298.151C528.284 298.347 529.531 299.755 529.531 301.43L529.531 333.788ZM529.531 269.034C529.531 270.012 529.104 270.93 528.37 271.553 527.759 272.067 527 272.336 526.217 272.336 526.045 272.336 525.875 272.324 525.692 272.287L499.228 267.98C497.625 267.723 496.453 266.341 496.453 264.714L496.453 231.253C496.453 230.251 496.891 229.32 497.663 228.685 498.446 228.06 499.449 227.816 500.428 228.012L526.892 233.395C528.42 233.713 529.533 235.071 529.533 236.638L529.533 269.034ZM529.531 204.279C529.531 205.294 529.067 206.261 528.261 206.884 527.673 207.349 526.963 207.594 526.217 207.594 525.959 207.594 525.692 207.557 525.434 207.496L498.972 200.999C497.504 200.644 496.464 199.311 496.464 197.794L496.464 164.31C496.464 163.27 496.953 162.291 497.772 161.668 498.592 161.056 499.669 160.848 500.673 161.129L527.135 168.738C528.542 169.142 529.52 170.438 529.52 171.92L529.52 204.279 529.531 204.279ZM639.479 565.058C639.479 566.576 638.451 567.885 636.982 568.264L551.809 589.771C551.553 589.833 551.273 589.87 551.015 589.87 550.281 589.87 549.57 589.625 548.985 589.173 548.176 588.536 547.712 587.582 547.712 586.555L547.712 398.469C547.712 398.139 548.226 363.749 596.305 365.559 639.001 367.15 639.491 397.856 639.491 398.175L639.491 565.058 639.479 565.058ZM675.25 503.375C675.25 504.989 674.075 506.359 672.498 506.629L655.113 509.578C654.918 509.614 654.746 509.627 654.552 509.627 653.781 509.627 653.021 509.357 652.422 508.856 651.676 508.209 651.246 507.291 651.246 506.311L651.246 479.263C651.246 477.599 652.482 476.192 654.122 475.984L671.519 473.746C672.46 473.624 673.403 473.929 674.125 474.541 674.834 475.178 675.249 476.07 675.249 477.024L675.249 503.375 675.25 503.375ZM675.25 450.708C675.25 452.421 673.942 453.852 672.229 453.986L654.833 455.492C654.735 455.504 654.637 455.504 654.553 455.504 653.733 455.504 652.936 455.198 652.314 454.648 651.628 454.011 651.248 453.131 651.248 452.213L651.248 425.152C651.248 423.389 652.633 421.934 654.405 421.861L671.802 421.078C672.695 421.017 673.588 421.359 674.225 421.983 674.885 422.607 675.251 423.463 675.251 424.369L675.251 450.708ZM675.25 397.832C675.25 399.655 673.771 401.135 671.959 401.135L654.564 401.197C654.564 401.197 654.564 401.197 654.552 401.197 653.683 401.197 652.837 400.855 652.227 400.231 651.602 399.607 651.26 398.775 651.26 397.894L651.26 371.064C651.26 370.171 651.614 369.315 652.264 368.678 652.911 368.055 653.781 367.725 654.687 367.761L672.071 368.435C673.843 368.496 675.262 369.952 675.262 371.738L675.262 397.832 675.25 397.832ZM675.25 345.373C675.25 346.291 674.86 347.184 674.187 347.795 673.562 348.37 672.768 348.675 671.936 348.675 671.85 348.675 671.752 348.663 671.678 348.663L654.283 347.281C652.569 347.146 651.247 345.715 651.247 343.978L651.247 316.929C651.247 315.987 651.651 315.094 652.362 314.457 653.07 313.834 654.013 313.528 654.942 313.663L672.34 315.767C674.003 315.963 675.25 317.369 675.25 319.045L675.25 345.373 675.25 345.373ZM675.25 292.718C675.25 293.685 674.823 294.602 674.075 295.238 673.475 295.751 672.719 296.021 671.935 296.021 671.751 296.021 671.58 296.009 671.408 295.972L654.013 293.159C652.41 292.902 651.235 291.508 651.235 289.892L651.235 262.831C651.235 261.84 651.676 260.911 652.448 260.274 653.217 259.65 654.234 259.405 655.212 259.589L672.597 263.137C674.139 263.454 675.251 264.813 675.251 266.379L675.251 292.718ZM675.25 240.051C675.25 241.066 674.786 242.033 673.991 242.657 673.391 243.121 672.681 243.366 671.947 243.366 671.689 243.366 671.422 243.342 671.164 243.268L653.755 238.999C652.287 238.632 651.246 237.297 651.246 235.781L651.246 208.732C651.246 207.692 651.725 206.713 652.568 206.09 653.387 205.466 654.465 205.27 655.468 205.551L672.853 210.543C674.272 210.946 675.249 212.243 675.249 213.723L675.249 240.051ZM707.388 497.919C707.388 499.533 706.215 500.903 704.624 501.173L688.978 503.84C688.794 503.864 688.611 503.877 688.427 503.877 687.656 503.877 686.897 503.62 686.285 503.106 685.539 502.482 685.109 501.552 685.109 500.586L685.109 474.931C685.109 473.267 686.357 471.861 687.997 471.653L703.645 469.646C704.586 469.524 705.529 469.818 706.249 470.454 706.972 471.078 707.375 471.982 707.375 472.925L707.375 497.92 707.388 497.92ZM707.388 447.93C707.388 449.655 706.08 451.075 704.367 451.234L688.721 452.58C688.623 452.592 688.526 452.592 688.44 452.592 687.62 452.592 686.812 452.286 686.201 451.724 685.515 451.1 685.123 450.219 685.123 449.289L685.123 423.646C685.123 421.873 686.519 420.418 688.294 420.343L703.94 419.633C704.833 419.584 705.726 419.915 706.363 420.539 707.023 421.163 707.389 422.019 707.389 422.925L707.389 447.93ZM707.388 397.943C707.388 399.754 705.909 401.246 704.085 401.246L688.439 401.308 688.427 401.308C687.558 401.308 686.713 400.966 686.102 400.342 685.477 399.717 685.122 398.886 685.122 398.005L685.122 372.35C685.122 371.432 685.489 370.577 686.14 369.953 686.788 369.329 687.657 368.998 688.549 369.035L704.209 369.635C705.981 369.708 707.389 371.164 707.389 372.938L707.389 397.943 707.388 397.943ZM707.388 347.93C707.388 348.847 707.01 349.741 706.325 350.353 705.714 350.927 704.906 351.233 704.074 351.233 703.988 351.233 703.902 351.221 703.816 351.221L688.17 349.986C686.444 349.839 685.122 348.408 685.122 346.682L685.122 321.028C685.122 320.085 685.526 319.193 686.249 318.556 686.958 317.933 687.9 317.639 688.83 317.762L704.478 319.646C706.141 319.854 707.388 321.261 707.388 322.924L707.388 347.93 707.388 347.93ZM707.388 297.93C707.388 298.909 706.961 299.826 706.215 300.45 705.613 300.964 704.857 301.245 704.073 301.245 703.889 301.245 703.729 301.233 703.546 301.208L687.9 298.663C686.297 298.406 685.11 297.012 685.11 295.397L685.11 269.742C685.11 268.751 685.563 267.809 686.335 267.185 687.093 266.549 688.109 266.304 689.088 266.5L704.734 269.692C706.276 269.998 707.388 271.369 707.388 272.935L707.388 297.93 707.388 297.93ZM707.388 247.942C707.388 248.958 706.924 249.912 706.116 250.548 705.53 251.001 704.808 251.245 704.074 251.245 703.816 251.245 703.547 251.22 703.279 251.148L687.642 247.318C686.163 246.964 685.122 245.63 685.122 244.101L685.122 218.458C685.122 217.418 685.612 216.439 686.444 215.815 687.263 215.178 688.341 214.995 689.331 215.276L704.98 219.766C706.399 220.17 707.376 221.466 707.376 222.946L707.376 247.94 707.388 247.94ZM736.433 493C736.433 494.615 735.258 495.986 733.667 496.267L719.513 498.653C719.317 498.69 719.147 498.702 718.963 498.702 718.18 498.702 717.421 498.445 716.821 497.932 716.075 497.296 715.645 496.378 715.645 495.412L715.645 471.029C715.645 469.365 716.881 467.958 718.533 467.751L732.688 465.939C733.631 465.816 734.572 466.11 735.294 466.734 736.016 467.359 736.42 468.263 736.42 469.218L736.42 493 736.433 493ZM736.433 445.411C736.433 447.136 735.123 448.555 733.412 448.714L719.245 449.938C719.159 449.95 719.061 449.95 718.975 449.95 718.155 449.95 717.347 449.644 716.736 449.082 716.05 448.458 715.66 447.577 715.66 446.647L715.66 422.264C715.66 420.491 717.043 419.035 718.815 418.961L732.984 418.313C733.864 418.264 734.756 418.607 735.405 419.231 736.066 419.854 736.433 420.71 736.433 421.616L736.433 445.411ZM736.433 397.832C736.433 399.655 734.952 401.135 733.13 401.147L718.975 401.196C718.963 401.196 718.963 401.196 718.963 401.196 718.094 401.196 717.237 400.854 716.626 400.23 716.001 399.606 715.659 398.774 715.659 397.893L715.659 373.523C715.659 372.618 716.026 371.761 716.675 371.125 717.323 370.502 718.18 370.171 719.084 370.208L733.251 370.745C735.025 370.819 736.433 372.275 736.433 374.061L736.433 397.832 736.433 397.832ZM736.433 350.243C736.433 351.172 736.04 352.041 735.37 352.677 734.745 353.24 733.95 353.546 733.117 353.546 733.033 353.546 732.933 353.546 732.861 353.534L718.706 352.409C716.98 352.262 715.66 350.83 715.66 349.105L715.66 324.722C715.66 323.781 716.062 322.887 716.773 322.25 717.481 321.627 718.424 321.333 719.366 321.443L733.521 323.155C735.186 323.363 736.433 324.77 736.433 326.433L736.433 350.243ZM736.433 302.664C736.433 303.631 736.003 304.548 735.258 305.172 734.658 305.686 733.901 305.954 733.116 305.954 732.932 305.954 732.762 305.942 732.591 305.917L718.424 303.618C716.821 303.361 715.659 301.965 715.659 300.35L715.659 275.968C715.659 274.977 716.098 274.047 716.882 273.412 717.652 272.787 718.668 272.543 719.634 272.726L733.789 275.613C735.332 275.919 736.444 277.29 736.444 278.856L736.444 302.663 736.433 302.663ZM736.433 255.075C736.433 256.09 735.968 257.045 735.161 257.668 734.573 258.133 733.85 258.378 733.117 258.378 732.861 258.378 732.592 258.354 732.334 258.28L718.181 254.806C716.7 254.451 715.661 253.118 715.661 251.6L715.661 227.218C715.661 226.178 716.149 225.199 716.97 224.576 717.801 223.952 718.879 223.756 719.868 224.037L734.023 228.099C735.443 228.503 736.42 229.811 736.42 231.279L736.42 255.075 736.433 255.075Z"/></g></g></g></g></svg>